<svg width="212" height="48" viewBox="0 0 212 48" fill="none" xmlns="http://www.w3.org/2000/svg">
<path d="M5.664 38.736C4.224 38.736 3.232 38.416 2.688 37.776C2.144 37.136 1.872 36.32 1.872 35.328C1.872 34.4 2.064 33.296 2.448 32.016C2.832 30.736 3.232 29.504 3.648 28.32C4.192 26.752 4.848 24.912 5.616 22.8C6.384 20.688 7.2 18.48 8.064 16.176C8.96 13.872 9.856 11.6 10.752 9.36C11.68 7.12 12.576 5.088 13.44 3.264C11.232 3.296 9.376 3.344 7.872 3.408C6.4 3.472 5.072 3.568 3.888 3.696C2.704 3.792 1.408 3.968 0 4.224C0.096 3.136 0.656 2.288 1.68 1.68C2.704 1.072 4.08 0.639999 5.808 0.384001C7.536 0.128 9.504 0 11.712 0C13.92 0 15.888 0.0959997 17.616 0.287999C19.376 0.447999 21.024 0.607999 22.56 0.767999C24.096 0.927999 25.632 1.024 27.168 1.056C26.08 2.048 24.832 2.672 23.424 2.928C22.016 3.184 20.528 3.312 18.96 3.312C18.416 3.312 17.856 3.312 17.28 3.312C16.704 3.28 16.128 3.264 15.552 3.264C14.528 5.824 13.344 9.056 12 12.96C10.688 16.864 9.36 21.264 8.016 26.16C7.312 28.688 6.736 30.848 6.288 32.64C5.84 34.4 5.616 36.08 5.616 37.68C5.616 37.84 5.616 38.016 5.616 38.208C5.616 38.4 5.632 38.576 5.664 38.736Z" fill="white"/>
<path d="M29.5834 36.432C28.5914 36.432 27.9034 35.968 27.5194 35.04C27.1674 34.144 26.9914 33.056 26.9914 31.776C26.9914 31.136 27.0234 30.448 27.0874 29.712C27.1514 28.944 27.2314 28.192 27.3274 27.456C26.6234 28.864 25.8554 30.224 25.0234 31.536C24.2234 32.848 23.3754 33.92 22.4794 34.752C21.5834 35.584 20.6394 36 19.6474 36C18.5914 36 17.7274 35.52 17.0554 34.56C16.3834 33.6 16.0474 32.464 16.0474 31.152C16.0474 30.224 16.1914 29.152 16.4794 27.936C16.7994 26.72 17.1834 25.52 17.6314 24.336C18.0794 23.152 18.5434 22.176 19.0234 21.408C19.5034 20.64 19.9194 20.256 20.2714 20.256C20.4314 20.256 20.7674 20.352 21.2794 20.544C21.7914 20.704 22.0474 20.928 22.0474 21.216C21.6954 21.76 21.2634 22.592 20.7514 23.712C20.2394 24.832 19.7914 26.048 19.4074 27.36C19.0234 28.64 18.8314 29.808 18.8314 30.864C18.8314 31.12 18.8634 31.52 18.9274 32.064C18.9914 32.576 19.1354 33.04 19.3594 33.456C19.6154 33.872 19.9994 34.08 20.5114 34.08C21.2474 34.08 22.0314 33.616 22.8634 32.688C23.6954 31.76 24.5274 30.592 25.3594 29.184C26.1914 27.776 26.9754 26.352 27.7114 24.912C27.9674 23.6 28.1754 22.64 28.3354 22.032C28.5274 21.424 28.7194 21.04 28.9114 20.88C29.1034 20.688 29.3434 20.592 29.6314 20.592C30.0474 20.592 30.3834 20.688 30.6394 20.88C30.8954 21.04 31.0234 21.296 31.0234 21.648C31.0234 21.744 30.9914 21.92 30.9274 22.176C30.7034 22.944 30.4794 23.92 30.2554 25.104C30.0634 26.256 29.9034 27.456 29.7754 28.704C29.6474 29.952 29.5834 31.12 29.5834 32.208C29.5834 33.776 29.9354 34.56 30.6394 34.56C31.1194 34.56 31.6794 34.272 32.3194 33.696C32.9594 33.088 33.6154 32.304 34.2874 31.344C34.9914 30.352 35.6634 29.28 36.3034 28.128C36.9754 26.976 37.5674 25.84 38.0794 24.72C38.0794 23.056 38.1914 21.792 38.4154 20.928C38.6714 20.032 38.9754 19.424 39.3274 19.104C39.7114 18.784 40.0954 18.624 40.4794 18.624C41.0874 18.624 41.5194 18.848 41.7754 19.296C42.0634 19.712 42.2074 20.096 42.2074 20.448C42.2074 20.672 42.1594 20.912 42.0634 21.168C41.9674 21.392 41.8394 21.648 41.6794 21.936C41.4234 22.416 41.1674 23.04 40.9114 23.808C40.6554 24.544 40.5274 25.568 40.5274 26.88C40.5274 27.392 40.5754 27.936 40.6714 28.512C40.7674 29.088 40.9754 29.568 41.2954 29.952C41.6154 30.336 42.1114 30.528 42.7834 30.528C43.4554 30.528 44.0954 30.272 44.7034 29.76C45.3434 29.216 45.9674 28.288 46.5754 26.976L47.1994 27.456C46.4954 29.056 45.7114 30.128 44.8474 30.672C44.0154 31.216 43.2154 31.488 42.4474 31.488C40.3994 31.488 39.0554 30.144 38.4154 27.456C37.6154 28.928 36.7194 30.352 35.7274 31.728C34.7354 33.104 33.7114 34.224 32.6554 35.088C31.5994 35.984 30.5754 36.432 29.5834 36.432Z" fill="white"/>
<path d="M66.7924 36.912C64.8404 36.912 63.3844 36.32 62.4244 35.136C61.4964 33.952 61.0324 32.528 61.0324 30.864C59.6564 32.688 58.0724 34.112 56.2804 35.136C54.4884 36.16 52.6804 36.672 50.8564 36.672C48.9044 36.672 47.4324 36.128 46.4404 35.04C45.4804 33.984 45.0004 32.672 45.0004 31.104C45.0004 29.664 45.3524 28.144 46.0564 26.544C46.7924 24.944 47.7524 23.44 48.9364 22.032C50.1524 20.624 51.4804 19.488 52.9204 18.624C54.3604 17.728 55.7844 17.28 57.1924 17.28C57.9284 17.28 58.6004 17.472 59.2084 17.856C59.8484 18.24 60.1684 19.024 60.1684 20.208C60.1684 21.424 59.8004 22.576 59.0644 23.664C58.3604 24.72 57.4164 25.664 56.2324 26.496C55.0804 27.328 53.8004 28.016 52.3924 28.56C51.0164 29.072 49.6404 29.392 48.2644 29.52C48.2004 29.84 48.1524 30.144 48.1204 30.432C48.0884 30.72 48.0724 30.992 48.0724 31.248C48.0724 32.24 48.3284 33.168 48.8404 34.032C49.3844 34.864 50.3924 35.28 51.8644 35.28C53.5604 35.28 55.2404 34.688 56.9044 33.504C58.5684 32.288 60.0244 30.8 61.2724 29.04C61.5604 27.728 62.0724 26.416 62.8084 25.104C63.5444 23.792 64.4244 22.608 65.4484 21.552C66.5044 20.464 67.6404 19.6 68.8564 18.96C70.0724 18.288 71.3044 17.952 72.5524 17.952C73.2884 17.952 73.9604 18.144 74.5684 18.528C75.2084 18.912 75.5284 19.696 75.5284 20.88C75.5284 22.512 74.9684 23.952 73.8484 25.2C72.7604 26.416 71.3524 27.392 69.6244 28.128C67.8964 28.864 66.1204 29.328 64.2964 29.52C64.2324 29.84 64.1844 30.144 64.1524 30.432C64.1204 30.72 64.1044 30.992 64.1044 31.248C64.1044 31.888 64.2004 32.544 64.3924 33.216C64.6164 33.888 64.9844 34.432 65.4964 34.848C66.0404 35.296 66.8084 35.52 67.8004 35.52C69.1764 35.52 70.5524 35.12 71.9284 34.32C73.3044 33.488 74.5844 32.416 75.7684 31.104C76.9524 29.76 77.9444 28.32 78.7444 26.784L79.3204 27.216C78.4564 29.136 77.3364 30.832 75.9604 32.304C74.6164 33.744 73.1444 34.864 71.5444 35.664C69.9764 36.496 68.3924 36.912 66.7924 36.912ZM48.5044 28.608C49.3684 28.32 50.3444 27.904 51.4324 27.36C52.5204 26.784 53.5604 26.112 54.5524 25.344C55.5764 24.576 56.4084 23.728 57.0484 22.8C57.7204 21.872 58.0564 20.896 58.0564 19.872C58.0564 19.52 57.9924 19.248 57.8644 19.056C57.7364 18.864 57.4644 18.768 57.0484 18.768C56.2804 18.768 55.4644 19.072 54.6004 19.68C53.7364 20.256 52.9044 21.024 52.1044 21.984C51.3044 22.944 50.5844 24 49.9444 25.152C49.3044 26.304 48.8244 27.456 48.5044 28.608ZM64.5364 28.608C65.4004 28.32 66.3444 27.936 67.3684 27.456C68.3924 26.976 69.3684 26.416 70.2964 25.776C71.2244 25.104 71.9924 24.352 72.6004 23.52C73.2084 22.656 73.5124 21.712 73.5124 20.688C73.5124 20.336 73.4324 20.048 73.2724 19.824C73.1124 19.568 72.8244 19.44 72.4084 19.44C71.3844 19.44 70.3444 19.888 69.2884 20.784C68.2644 21.68 67.3204 22.832 66.4564 24.24C65.6244 25.616 64.9844 27.072 64.5364 28.608Z" fill="white"/>
<path d="M91.9909 36.384C91.0949 36.384 90.3269 36.08 89.6869 35.472C89.0469 34.864 88.5349 34.096 88.1509 33.168C87.7989 32.24 87.5269 31.296 87.3349 30.336C87.1749 29.344 87.0949 28.48 87.0949 27.744C87.4469 27.744 87.9589 27.664 88.6309 27.504C89.3029 27.312 89.9909 27.04 90.6949 26.688C91.3989 26.304 91.9909 25.824 92.4709 25.248C92.9829 24.64 93.2389 23.936 93.2389 23.136C93.2389 22.464 92.9989 21.936 92.5189 21.552C92.0389 21.168 91.4789 20.976 90.8389 20.976C89.8469 20.976 88.9189 21.328 88.0549 22.032C87.1909 22.704 86.4069 23.6 85.7029 24.72C85.0309 25.808 84.4229 26.976 83.8789 28.224C83.3349 29.472 82.8709 30.656 82.4869 31.776C82.1029 32.896 81.7829 33.824 81.5269 34.56C81.3349 35.136 81.0629 35.52 80.7109 35.712C80.3589 35.936 79.9909 36.048 79.6069 36.048C79.0629 36.048 78.6629 35.824 78.4069 35.376C78.1829 34.928 78.0389 34.368 77.9749 33.696C77.9429 32.992 77.9269 32.272 77.9269 31.536C77.9269 29.872 78.1989 27.952 78.7429 25.776C79.2869 23.6 80.0069 21.344 80.9029 19.008C81.8309 16.64 82.8389 14.352 83.9269 12.144C85.0149 9.936 86.1029 7.936 87.1909 6.144C88.2789 4.352 89.2869 2.928 90.2149 1.872C91.1429 0.815999 91.8949 0.287999 92.4709 0.287999C92.9189 0.287999 93.2709 0.591999 93.5269 1.2C93.8149 1.808 93.9589 2.544 93.9589 3.408C93.9589 4.496 93.7189 5.728 93.2389 7.104C92.7589 8.448 92.0709 9.808 91.1749 11.184C90.3109 12.56 89.2709 13.856 88.0549 15.072C86.8709 16.288 85.5749 17.328 84.1669 18.192C83.1109 20.784 82.3109 23.312 81.7669 25.776C81.2549 28.208 80.9989 30.256 80.9989 31.92C81.5109 30.64 82.1189 29.232 82.8229 27.696C83.5589 26.16 84.3909 24.688 85.3189 23.28C86.2469 21.872 87.2549 20.72 88.3429 19.824C89.4309 18.928 90.5669 18.48 91.7509 18.48C92.9349 18.48 93.9429 18.896 94.7749 19.728C95.6069 20.56 96.0229 21.568 96.0229 22.752C96.0229 23.776 95.7509 24.656 95.2069 25.392C94.6949 26.096 94.0549 26.672 93.2869 27.12C92.5509 27.536 91.7989 27.856 91.0309 28.08C90.2949 28.272 89.6869 28.368 89.2069 28.368C89.2389 28.624 89.3349 29.088 89.4949 29.76C89.6549 30.432 89.8789 31.136 90.1669 31.872C90.4869 32.608 90.8709 33.248 91.3189 33.792C91.7669 34.304 92.3109 34.56 92.9509 34.56C94.3269 34.56 95.6069 33.808 96.7909 32.304C97.9749 30.768 99.0629 28.912 100.055 26.736L100.535 27.216C100.087 28.784 99.3989 30.272 98.4709 31.68C97.5429 33.056 96.5029 34.176 95.3509 35.04C94.2309 35.936 93.1109 36.384 91.9909 36.384ZM84.9829 16.272C86.4549 15.088 87.7349 13.744 88.8229 12.24C89.9429 10.736 90.8069 9.296 91.4149 7.92C92.0229 6.512 92.3269 5.408 92.3269 4.608C92.3269 4.32 92.2789 4.176 92.1829 4.176C91.8629 4.176 91.3029 4.736 90.5029 5.856C89.7349 6.976 88.8549 8.464 87.8629 10.32C86.8709 12.144 85.9109 14.128 84.9829 16.272Z" fill="white"/>
<path d="M101.221 48C100.421 48 99.7167 47.776 99.1087 47.328C98.5007 46.912 98.1967 46.288 98.1967 45.456C98.1967 44.08 98.6288 42.896 99.4928 41.904C100.389 40.912 101.541 40 102.949 39.168C104.389 38.368 105.909 37.568 107.509 36.768C107.957 35.584 108.405 34.272 108.853 32.832C109.333 31.36 109.781 29.744 110.197 27.984C109.173 29.648 108.069 31.088 106.885 32.304C105.733 33.488 104.501 34.08 103.189 34.08C102.261 34.08 101.381 33.776 100.549 33.168C99.7488 32.528 99.3487 31.536 99.3487 30.192C99.3487 29.296 99.4927 28.256 99.7807 27.072C100.101 25.888 100.485 24.736 100.933 23.616C101.381 22.496 101.845 21.568 102.325 20.832C102.805 20.096 103.221 19.728 103.573 19.728C103.701 19.728 103.925 19.776 104.245 19.872C104.597 19.968 104.917 20.112 105.205 20.304C105.525 20.464 105.685 20.64 105.685 20.832C105.397 21.248 105.077 21.84 104.725 22.608C104.373 23.376 104.021 24.24 103.669 25.2C103.349 26.128 103.077 27.04 102.853 27.936C102.629 28.832 102.517 29.6 102.517 30.24C102.517 30.816 102.645 31.28 102.901 31.632C103.157 31.984 103.605 32.16 104.245 32.16C104.853 32.16 105.525 31.872 106.261 31.296C107.029 30.688 107.781 29.92 108.517 28.992C109.285 28.064 109.989 27.072 110.629 26.016C110.725 25.664 110.805 25.312 110.869 24.96C110.965 24.576 111.045 24.192 111.109 23.808C111.205 23.36 111.429 22.848 111.781 22.272C112.165 21.664 112.757 21.36 113.557 21.36C113.845 21.36 114.181 21.408 114.565 21.504C114.565 22.016 114.405 22.976 114.085 24.384C113.797 25.76 113.365 27.376 112.789 29.232C112.245 31.088 111.589 32.992 110.821 34.944C112.325 34.368 113.797 33.424 115.237 32.112C116.677 30.768 117.845 28.992 118.741 26.784L119.365 27.264C118.885 28.8 118.149 30.144 117.157 31.296C116.197 32.416 115.109 33.392 113.893 34.224C112.677 35.024 111.477 35.696 110.293 36.24C109.461 38.288 108.549 40.208 107.557 42C106.597 43.792 105.573 45.232 104.485 46.32C103.429 47.44 102.341 48 101.221 48ZM100.981 46.464C101.461 46.464 102.261 45.824 103.381 44.544C104.533 43.296 105.749 41.088 107.029 37.92C105.717 38.624 104.501 39.312 103.381 39.984C102.261 40.688 101.365 41.44 100.693 42.24C100.021 43.04 99.6848 43.968 99.6848 45.024C99.6848 45.28 99.7807 45.584 99.9727 45.936C100.165 46.288 100.501 46.464 100.981 46.464Z" fill="white"/>
<path d="M131.098 38.736C130.394 38.32 129.946 37.872 129.754 37.392C129.562 36.944 129.466 36.56 129.466 36.24C129.466 35.344 129.786 34.128 130.426 32.592C131.098 31.056 131.978 29.312 133.066 27.36C134.186 25.376 135.418 23.328 136.762 21.216C135.578 21.12 134.57 21.056 133.738 21.024C132.906 20.992 132.186 20.976 131.578 20.976H129.898C130.25 20.048 130.858 19.408 131.722 19.056C132.618 18.672 133.674 18.48 134.89 18.48C135.434 18.48 135.994 18.512 136.57 18.576C137.146 18.64 137.738 18.72 138.346 18.816C139.978 16.352 141.642 13.968 143.338 11.664C145.066 9.328 146.666 7.264 148.138 5.472C149.642 3.648 150.89 2.272 151.882 1.344C152.81 0.448 153.578 0 154.186 0C154.858 0 155.706 0.512 156.73 1.536C156.41 1.792 155.994 2.48 155.482 3.6C155.002 4.688 154.474 6.064 153.898 7.728C153.354 9.392 152.81 11.216 152.266 13.2C151.722 15.184 151.21 17.216 150.73 19.296C150.282 21.344 149.914 23.296 149.626 25.152C149.37 27.008 149.242 28.64 149.242 30.048C149.242 31.264 149.37 32.208 149.626 32.88C149.914 33.552 150.378 33.888 151.018 33.888C151.85 33.888 152.794 33.312 153.85 32.16C154.906 31.008 156.058 29.216 157.306 26.784L157.786 27.264C156.826 29.824 155.594 31.92 154.09 33.552C152.618 35.184 151.082 36 149.482 36C148.17 36 147.21 35.424 146.602 34.272C146.026 33.088 145.738 31.52 145.738 29.568C145.738 27.52 146.01 25.136 146.554 22.416C145.146 22.192 143.85 22.016 142.666 21.888C141.514 21.728 140.442 21.584 139.45 21.456C137.946 24.24 136.474 27.104 135.034 30.048C133.626 32.992 132.314 35.888 131.098 38.736ZM146.89 20.736C147.37 18.624 147.93 16.496 148.57 14.352C149.21 12.176 149.882 10.112 150.586 8.16C151.322 6.208 152.01 4.496 152.65 3.024C151.658 3.632 150.506 4.72 149.194 6.288C147.914 7.824 146.554 9.712 145.114 11.952C143.674 14.16 142.202 16.592 140.698 19.248C141.786 19.472 142.858 19.728 143.914 20.016C145.002 20.272 145.994 20.512 146.89 20.736Z" fill="white"/>
<path d="M153.32 48C153.064 48 152.824 47.856 152.6 47.568C152.344 47.312 152.152 47.024 152.024 46.704C151.896 46.416 151.832 46.24 151.832 46.176C152.28 44.608 152.728 43.2 153.176 41.952C153.592 40.736 154.024 39.472 154.472 38.16C154.888 36.88 155.304 35.376 155.72 33.648C156.136 31.888 156.568 29.712 157.016 27.12C157.464 24.528 157.912 21.312 158.36 17.472C158.392 17.184 158.456 16.976 158.552 16.848C158.648 16.72 158.888 16.656 159.272 16.656C160.104 16.656 160.696 16.896 161.048 17.376C161.4 17.824 161.576 18.32 161.576 18.864C161.576 19.312 161.48 20.112 161.288 21.264C161.096 22.416 160.824 23.776 160.472 25.344C161.016 24.288 161.688 23.216 162.488 22.128C163.32 21.04 164.264 20.128 165.32 19.392C166.376 18.656 167.528 18.288 168.776 18.288C170.184 18.288 171.336 18.8 172.232 19.824C173.16 20.816 173.624 22.128 173.624 23.76C173.624 25.008 173.336 26.336 172.76 27.744C172.216 29.12 171.432 30.432 170.408 31.68C169.416 32.896 168.232 33.888 166.856 34.656C165.48 35.424 163.96 35.808 162.296 35.808C161.464 35.808 160.792 35.712 160.28 35.52C159.768 35.328 159.512 35.136 159.512 34.944C159.512 34.816 159.624 34.736 159.848 34.704C160.104 34.704 160.392 34.704 160.712 34.704C161.992 34.704 163.208 34.4 164.36 33.792C165.544 33.152 166.6 32.32 167.528 31.296C168.456 30.272 169.176 29.136 169.688 27.888C170.232 26.64 170.504 25.408 170.504 24.192C170.504 23.168 170.28 22.304 169.832 21.6C169.416 20.864 168.728 20.496 167.768 20.496C166.936 20.496 166.104 20.768 165.272 21.312C164.472 21.824 163.704 22.496 162.968 23.328C162.264 24.128 161.624 24.976 161.048 25.872C160.504 26.736 160.088 27.52 159.8 28.224C159.224 30.624 158.648 32.928 158.072 35.136C157.496 37.376 156.936 39.392 156.392 41.184C155.88 43.008 155.416 44.496 155 45.648C154.552 46.8 154.184 47.504 153.896 47.76C153.736 47.92 153.544 48 153.32 48Z" fill="white"/>
<path d="M172.07 48C171.814 48 171.574 47.856 171.35 47.568C171.094 47.312 170.902 47.024 170.774 46.704C170.646 46.416 170.582 46.24 170.582 46.176C171.03 44.608 171.478 43.2 171.926 41.952C172.342 40.736 172.774 39.472 173.222 38.16C173.638 36.88 174.054 35.376 174.47 33.648C174.886 31.888 175.318 29.712 175.766 27.12C176.214 24.528 176.662 21.312 177.11 17.472C177.142 17.184 177.206 16.976 177.302 16.848C177.398 16.72 177.638 16.656 178.022 16.656C178.854 16.656 179.446 16.896 179.798 17.376C180.15 17.824 180.326 18.32 180.326 18.864C180.326 19.312 180.23 20.112 180.038 21.264C179.846 22.416 179.574 23.776 179.222 25.344C179.766 24.288 180.438 23.216 181.238 22.128C182.07 21.04 183.014 20.128 184.07 19.392C185.126 18.656 186.278 18.288 187.526 18.288C188.934 18.288 190.086 18.8 190.982 19.824C191.91 20.816 192.374 22.128 192.374 23.76C192.374 25.008 192.086 26.336 191.51 27.744C190.966 29.12 190.182 30.432 189.158 31.68C188.166 32.896 186.982 33.888 185.606 34.656C184.23 35.424 182.71 35.808 181.046 35.808C180.214 35.808 179.542 35.712 179.03 35.52C178.518 35.328 178.262 35.136 178.262 34.944C178.262 34.816 178.374 34.736 178.598 34.704C178.854 34.704 179.142 34.704 179.462 34.704C180.742 34.704 181.958 34.4 183.11 33.792C184.294 33.152 185.35 32.32 186.278 31.296C187.206 30.272 187.926 29.136 188.438 27.888C188.982 26.64 189.254 25.408 189.254 24.192C189.254 23.168 189.03 22.304 188.582 21.6C188.166 20.864 187.478 20.496 186.518 20.496C185.686 20.496 184.854 20.768 184.022 21.312C183.222 21.824 182.454 22.496 181.718 23.328C181.014 24.128 180.374 24.976 179.798 25.872C179.254 26.736 178.838 27.52 178.55 28.224C177.974 30.624 177.398 32.928 176.822 35.136C176.246 37.376 175.686 39.392 175.142 41.184C174.63 43.008 174.166 44.496 173.75 45.648C173.302 46.8 172.934 47.504 172.646 47.76C172.486 47.92 172.294 48 172.07 48Z" fill="white"/>
<path d="M198.884 37.008C197.38 37.008 196.18 36.672 195.284 36C194.42 35.36 193.812 34.56 193.46 33.6C193.076 32.64 192.884 31.68 192.884 30.72C192.884 29.76 193.012 29.024 193.268 28.512C193.524 28 193.828 27.616 194.18 27.36C194.564 27.104 194.916 26.912 195.236 26.784C195.588 26.656 195.828 26.528 195.956 26.4C196.916 25.344 197.796 24.24 198.596 23.088C199.396 21.936 200.1 20.72 200.708 19.44V18.864C200.708 17.68 200.9 16.848 201.284 16.368C201.7 15.856 202.132 15.6 202.58 15.6C203.092 15.6 203.348 15.808 203.348 16.224C203.348 16.384 203.3 16.64 203.204 16.992C203.108 17.344 203.06 17.792 203.06 18.336C203.06 19.392 203.268 20.544 203.684 21.792C204.1 23.008 204.516 24.304 204.932 25.68C205.348 27.024 205.556 28.432 205.556 29.904C205.556 30.736 205.46 31.52 205.268 32.256C206.388 32.064 207.444 31.568 208.436 30.768C209.428 29.936 210.388 28.624 211.316 26.832L211.748 27.312C211.14 29.072 210.228 30.416 209.012 31.344C207.796 32.24 206.468 32.8 205.028 33.024C204.516 34.4 203.7 35.408 202.58 36.048C201.492 36.688 200.26 37.008 198.884 37.008ZM202.244 32.208C202.308 31.888 202.356 31.552 202.388 31.2C202.42 30.848 202.436 30.432 202.436 29.952C202.436 28.448 202.244 26.96 201.86 25.488C201.508 23.984 201.204 22.576 200.948 21.264C200.212 22.48 199.428 23.648 198.596 24.768C197.796 25.856 197.028 26.768 196.292 27.504C196.772 28.528 197.508 29.488 198.5 30.384C199.524 31.28 200.772 31.888 202.244 32.208ZM198.98 35.328C199.364 35.328 199.876 35.2 200.516 34.944C201.156 34.688 201.652 34.032 202.004 32.976C200.66 32.72 199.46 32.192 198.404 31.392C197.38 30.592 196.612 29.792 196.1 28.992C195.396 29.024 195.044 29.584 195.044 30.672C195.044 31.824 195.38 32.896 196.052 33.888C196.756 34.848 197.732 35.328 198.98 35.328Z" fill="white"/>
</svg>
